<mxfile host="app.diagrams.net" modified="2023-06-22T10:56:50.401Z" agent="Mozilla/5.0 (Windows NT 10.0; Win64; x64) AppleWebKit/537.36 (KHTML, like Gecko) Chrome/114.0.0.0 Safari/537.36" version="21.5.0" etag="GAaAr-JJ_AQYAF9gnUx8" type="github">
  <diagram name="페이지-1" id="nCzWSymB5eBvvzLEW38y">
    <mxGraphModel>
      <root>
        <mxCell id="0" />
        <mxCell id="1" parent="0" />
      </root>
    </mxGraphModel>
  </diagram>
</mxfile>
